<svg version="1.1" xmlns="http://www.w3.org/2000/svg" viewBox="0 0 490.00013732910156 498.49993896484375" width="490.00013732910156" height="498.49993896484375">
  <!-- svg-source:excalidraw -->
  
  <defs>
    <style>
      @font-face {
        font-family: "Virgil";
        src: url("https://excalidraw.com/Virgil.woff2");
      }
      @font-face {
        font-family: "Cascadia";
        src: url("https://excalidraw.com/Cascadia.woff2");
      }
    </style>
  </defs>
  <rect x="0" y="0" width="490.00013732910156" height="498.49993896484375" fill="#ffffff"></rect><g stroke-linecap="round" transform="translate(174.79998779296875 10) rotate(0 76.39999389648438 38.400001525878906)"><path d="M-0.35 -0.61 C47.3 -2.05, 90.98 -1.86, 151.62 -1.65 M0.98 -0.33 C53.66 -1.1, 106.58 -0.53, 152.4 0.65 M152.02 -1.7 C152.33 20.83, 152.88 39.66, 153.03 77.42 M153.27 0.12 C152.95 20.89, 153.86 43.21, 152.29 75.91 M152.02 75.24 C91.03 78.77, 31.9 77.66, -0.89 76.52 M151.9 76.68 C103.85 78.33, 55.88 77.95, -0.83 76.89 M-0.9 76.59 C-1.4 62.3, -1.51 46.27, -0.51 -1.14 M0.08 76.13 C-0.38 56.76, -0.53 37.13, -0.96 0.36" stroke="#000000" stroke-width="2" fill="none"></path></g><g transform="translate(231.19998168945312 35.900001525878906) rotate(0 20 12.5)"><text x="20" y="18" font-family="Virgil, Segoe UI Emoji" font-size="20px" fill="#000000" text-anchor="middle" style="white-space: pre;" direction="ltr">STL</text></g><g stroke-linecap="round" transform="translate(10 166.00003051757812) rotate(0 68.80000305175781 32.399993896484375)"><path d="M-1.42 -0.18 C41.36 -0.03, 77.9 2.94, 138.9 1.51 M-0.95 -0.79 C33.89 0.12, 68.66 -0.89, 137.22 0.71 M136.19 -0.98 C139.53 15.32, 139.55 28.01, 137.52 64.43 M138.13 0.36 C137.51 22.75, 137.9 46.62, 138.1 64.72 M137.14 65.45 C85.08 61.73, 30.89 61.91, 1.44 64.65 M136.92 65.58 C108.7 65.36, 79.69 65.15, -0.68 64.32 M1.42 65.12 C0.35 42.94, -1.19 22.17, -1.42 -1.73 M-0.6 64.93 C-1.05 45.51, -0.18 26.3, -0.24 -0.59" stroke="#000000" stroke-width="2" fill="none"></path></g><g transform="translate(20.399978637695312 185) rotate(0 60 15)"><text x="60" y="23" font-family="Virgil, Segoe UI Emoji" font-size="20px" fill="#000000" text-anchor="middle" style="white-space: pre;" direction="ltr">功能类头文件</text></g><g stroke-linecap="round" transform="translate(342.40013122558594 164) rotate(0 68.80000305175781 32.399993896484375)"><path d="M1.33 0.89 C31.42 1.49, 61.3 -2.19, 136.4 -0.42 M0.11 -0.15 C29.55 0.62, 60.77 0.98, 137.01 0.74 M138.38 -0.96 C137.87 16.79, 139.03 34.98, 138.43 62.86 M138.2 0.6 C137.98 23.84, 137.38 47.28, 137.35 65.22 M138.29 66.26 C106.14 64.9, 76.12 66.55, -0.3 63.45 M137.99 65.61 C94.44 63.58, 49.45 64.74, -0.51 64.85 M0.17 64.35 C-0.82 39.78, -1.54 12.99, -0.29 1.36 M0.22 64.12 C0.77 50.84, 0.37 38.05, -0.78 -0.83" stroke="#000000" stroke-width="2" fill="none"></path></g><g transform="translate(352.80010986328125 179.79995727539062) rotate(0 60 15)"><text x="60" y="23" font-family="Virgil, Segoe UI Emoji" font-size="20px" fill="#000000" text-anchor="middle" style="white-space: pre;" direction="ltr">容器类头文件</text></g><g stroke-linecap="round"><g transform="translate(244.39996337890625 87.5999755859375) rotate(0 -81.20836877152325 37.79204545481595)"><path d="M-0.06 0.28 C-26.98 12.88, -135.28 63.85, -162.36 76.21 M-1.55 -0.62 C-28.01 11.6, -133.62 61.95, -160.05 74.61" stroke="#000000" stroke-width="2" fill="none"></path></g><g transform="translate(244.39996337890625 87.5999755859375) rotate(0 -81.20836877152325 37.79204545481595)"><path d="M-138.56 51.94 C-142.07 56.6, -149.89 64.66, -158.91 73.93 M-138.87 52.94 C-143.75 58.98, -149.37 63.35, -160.64 74.18" stroke="#000000" stroke-width="2" fill="none"></path></g><g transform="translate(244.39996337890625 87.5999755859375) rotate(0 -81.20836877152325 37.79204545481595)"><path d="M-129.72 70.46 C-135.36 70.86, -145.21 74.66, -158.91 73.93 M-130.03 71.46 C-137.05 73.26, -144.72 73.34, -160.64 74.18" stroke="#000000" stroke-width="2" fill="none"></path></g></g><g stroke-linecap="round"><g transform="translate(247.5999755859375 85.99998474121094) rotate(0 81.90914352088703 36.56508531169034)"><path d="M0.93 0.38 C28.34 12.38, 136.89 60.22, 163.86 72.59 M-0.04 -0.46 C27.32 11.59, 136.29 61.38, 163.26 73.59" stroke="#000000" stroke-width="2" fill="none"></path></g><g transform="translate(247.5999755859375 85.99998474121094) rotate(0 81.90914352088703 36.56508531169034)"><path d="M133.99 72.37 C139.12 70.92, 149.93 73.02, 164.99 75.25 M133.56 70.98 C139.14 71.62, 146.96 73.07, 162.69 72.66" stroke="#000000" stroke-width="2" fill="none"></path></g><g transform="translate(247.5999755859375 85.99998474121094) rotate(0 81.90914352088703 36.56508531169034)"><path d="M142.49 53.69 C145.6 56.96, 154.3 63.7, 164.99 75.25 M142.06 52.3 C145.94 56.91, 151.92 62.41, 162.69 72.66" stroke="#000000" stroke-width="2" fill="none"></path></g></g><g transform="translate(12.800003051757812 257.7999267578125) rotate(0 70.5 12)"><text x="0" y="19" font-family="Cascadia, Segoe UI Emoji" font-size="20px" fill="#000000" text-anchor="start" style="white-space: pre;" direction="ltr">stl_config.h</text></g><g transform="translate(12.800003051757812 297) rotate(0 64.5 12)"><text x="0" y="19" font-family="Cascadia, Segoe UI Emoji" font-size="20px" fill="#000000" text-anchor="start" style="white-space: pre;" direction="ltr">stl_alloc.h</text></g><g transform="translate(12.800003051757812 339.3999328613281) rotate(0 88 12)"><text x="0" y="19" font-family="Cascadia, Segoe UI Emoji" font-size="20px" fill="#000000" text-anchor="start" style="white-space: pre;" direction="ltr">stl_construct.h</text></g><g transform="translate(12.800003051757812 380.20001220703125) rotate(0 111 12)"><text x="0" y="19" font-family="Cascadia, Segoe UI Emoji" font-size="20px" fill="#000000" text-anchor="start" style="white-space: pre;" direction="ltr">stl_iterator_base.h</text></g><g transform="translate(12.800003051757812 420.9998779296875) rotate(0 76 12)"><text x="0" y="19" font-family="Cascadia, Segoe UI Emoji" font-size="20px" fill="#000000" text-anchor="start" style="white-space: pre;" direction="ltr">type_traits.h</text></g><g transform="translate(12.800003051757812 464.49993896484375) rotate(0 82 12)"><text x="0" y="19" font-family="Cascadia, Segoe UI Emoji" font-size="20px" fill="#364fc7" text-anchor="start" style="white-space: pre;" direction="ltr">stl_algobase.h</text></g></svg>